<?xml version="1.0" standalone="no"?>
<!DOCTYPE svg PUBLIC "-//W3C//DTD SVG 20010904//EN"
 "http://www.w3.org/TR/2001/REC-SVG-20010904/DTD/svg10.dtd">
<svg version="1.0" xmlns="http://www.w3.org/2000/svg"
 width="1024.000000pt" height="1024.000000pt" viewBox="0 0 1024.000000 1024.000000"
 preserveAspectRatio="xMidYMid meet">
<metadata>
Created by potrace 1.11, written by Peter Selinger 2001-2013
</metadata>
<g transform="translate(0.000000,1024.000000) scale(0.100000,-0.100000)"
fill="#000000" stroke="none">
<path d="M0 5399 c0 -2779 4 -4839 9 -4837 20 7 91 79 91 92 0 13 85 106 97
106 4 0 15 -8 26 -18 19 -16 19 -16 13 5 -5 17 3 31 36 65 56 56 67 65 113 84
l39 16 -52 -48 c-28 -26 -52 -54 -52 -61 0 -7 -4 -13 -9 -13 -5 0 -28 -26 -52
-58 -38 -49 -44 -54 -47 -35 -2 13 -10 23 -17 23 -19 0 -31 -40 -15 -50 15 -9
4 -31 -13 -29 -28 3 -34 -2 -29 -26 3 -17 -1 -27 -12 -31 -30 -12 -39 -43 -20
-71 22 -34 31 -125 12 -121 -10 2 -12 -9 -10 -45 2 -26 0 -53 -6 -60 -14 -18
-42 -112 -42 -140 0 -14 -7 -27 -15 -31 -8 -3 -15 -12 -15 -19 0 -8 -7 -20
-15 -27 -8 -7 -15 -25 -15 -41 l0 -29 5120 0 5120 0 0 380 c0 209 -4 380 -8
380 -5 0 -34 -24 -65 -53 -60 -56 -117 -132 -117 -158 0 -9 -9 -24 -20 -34
-19 -18 -20 -17 -20 2 0 46 13 84 26 79 17 -7 18 17 2 61 -11 29 -10 35 8 48
10 8 15 15 10 15 -4 0 2 8 15 19 20 16 21 21 10 35 -9 11 -11 28 -5 58 4 24 7
49 5 56 -1 6 5 12 13 12 16 0 29 61 24 117 -4 50 -34 44 -58 -13 -18 -42 -40
-52 -40 -18 0 11 -7 13 -27 8 -16 -4 -30 -10 -33 -14 -3 -4 -17 -10 -32 -14
-24 -5 -28 -3 -28 14 0 27 -18 25 -23 -3 l-4 -22 -8 23 c-9 27 -25 29 -25 2 0
-12 -7 -20 -17 -20 -9 0 -24 -7 -34 -16 -24 -22 -108 -22 -141 0 -31 21 -64
14 -73 -14 -4 -11 -17 -23 -31 -26 -13 -3 -24 -11 -24 -16 0 -6 -12 6 -26 27
-34 50 -46 171 -20 197 19 20 21 32 3 25 -8 -3 -20 -1 -27 3 -11 7 -12 14 -2
35 7 14 12 64 12 111 0 47 5 95 12 107 8 15 13 96 15 237 2 118 5 225 8 238 5
21 7 22 28 7 12 -8 25 -15 29 -15 14 0 8 58 -9 89 -10 16 -14 33 -10 38 9 9
28 -17 21 -29 -3 -4 16 -8 43 -8 62 0 76 -10 70 -47 -5 -29 -3 -31 38 -36 23
-4 56 -2 73 2 38 11 155 -2 160 -17 2 -7 17 -12 33 -12 41 0 36 -15 -11 -34
-45 -18 -55 -40 -14 -30 14 4 29 3 33 -2 13 -18 55 -37 59 -26 2 6 14 4 33 -6
29 -17 38 -32 19 -32 -5 0 -10 -8 -10 -17 -1 -13 -5 -9 -16 10 -12 23 -20 28
-37 22 -12 -3 -59 -9 -104 -12 -61 -4 -87 -11 -103 -25 -20 -18 -20 -18 -42 2
-25 23 -66 26 -117 7 -32 -11 -60 -33 -61 -47 -1 -24 165 -41 187 -19 8 8 17
7 32 -3 26 -16 27 -40 1 -63 -19 -17 -21 -17 -40 0 -19 18 -20 17 -20 -2 0
-12 8 -23 20 -26 28 -7 60 3 60 19 0 17 105 20 116 3 10 -18 -17 -29 -70 -29
-27 0 -47 -3 -43 -6 3 -4 38 -6 77 -6 l70 1 0 -63 c0 -35 3 -84 6 -110 7 -46
7 -46 45 -46 37 0 38 -1 36 -33 -3 -37 -22 -63 -52 -68 -15 -3 -12 -9 18 -29
20 -14 37 -32 37 -40 0 -12 2 -13 9 -1 7 11 9 11 14 0 3 -8 6 5 6 29 1 30 5
42 16 42 11 0 13 7 9 28 -8 38 22 70 72 75 l39 4 -42 1 c-31 2 -43 6 -43 17 0
11 11 15 40 15 l40 0 0 814 0 814 -57 22 c-91 35 -124 47 -191 70 -34 13 -65
27 -68 31 -3 5 -13 9 -23 9 -9 0 -35 18 -58 40 -35 35 -43 51 -57 118 -16 76
-14 212 4 237 4 6 10 24 13 40 5 32 22 82 43 130 12 29 26 75 58 200 12 47 17
141 21 440 3 281 8 399 19 455 8 41 20 100 25 130 6 30 15 64 20 75 14 31 41
142 41 169 0 13 9 48 19 78 11 29 27 80 37 113 9 33 23 69 30 80 8 11 14 27
14 36 0 20 74 89 95 89 13 0 15 245 15 2129 l0 2129 -32 5 c-38 5 -164 -15
-193 -31 -11 -5 -32 -8 -46 -5 -18 3 -31 -1 -40 -14 -23 -30 -72 -29 -104 3
-9 9 -19 14 -22 10 -4 -3 -2 -11 4 -17 15 -15 5 -39 -12 -33 -7 3 -30 -2 -50
-11 -36 -14 -41 -14 -81 5 -37 18 -48 20 -84 10 -51 -14 -154 -11 -195 5 -42
17 -105 26 -105 14 0 -14 -17 -11 -34 7 -9 8 -14 20 -10 25 15 25 -19 39 -95
39 -42 0 -109 5 -150 10 -64 9 -78 8 -100 -7 -14 -9 -46 -20 -71 -24 -25 -4
-70 -14 -100 -23 -30 -9 -87 -18 -127 -20 -51 -3 -86 -11 -122 -30 -32 -16
-70 -26 -103 -27 -64 -2 -128 -20 -128 -35 0 -20 -39 -49 -51 -37 -14 14 -3
33 17 33 8 0 14 5 14 10 0 6 -5 10 -10 10 -6 0 -9 3 -8 8 4 13 -13 52 -23 52
-17 0 -9 15 17 31 25 16 26 16 5 22 -11 3 -21 1 -21 -4 0 -5 -9 -9 -20 -9 -15
0 -20 7 -20 28 0 44 13 56 35 32 19 -21 65 -28 65 -9 0 6 -10 19 -22 28 -14
12 -19 24 -15 35 6 14 19 16 118 10 102 -7 113 -5 125 11 13 18 114 40 114 25
0 -4 18 -6 40 -5 22 1 40 -3 40 -9 0 -6 5 -5 12 2 14 14 68 16 68 3 0 -11 59
-22 119 -23 32 0 46 5 57 21 8 11 25 21 36 21 12 0 36 11 54 25 18 14 38 25
44 25 7 0 10 6 7 14 -7 19 30 28 54 13 26 -16 49 5 32 32 -10 16 -8 17 12 13
13 -2 36 3 52 11 15 8 50 23 76 32 46 16 49 16 68 -1 19 -17 20 -17 34 3 8 11
26 24 40 27 17 4 25 13 25 27 0 20 4 21 45 14 40 -5 48 -3 65 17 11 13 19 31
20 41 0 16 -234 17 -4780 17 l-4780 0 0 -4841z m3215 3942 c-8 -14 -25 -14
-25 0 0 5 5 7 10 4 6 -3 10 -1 10 6 0 7 3 10 6 6 3 -3 3 -10 -1 -16z m-375
-92 c0 -16 -4 -29 -10 -29 -12 0 -24 45 -15 60 11 18 25 1 25 -31z m-120 6 c0
-30 -43 -56 -62 -37 -17 17 16 50 60 61 1 1 2 -10 2 -24z m-240 -95 c0 -5 -7
-10 -15 -10 -8 0 -15 5 -15 10 0 6 7 10 15 10 8 0 15 -4 15 -10z m-10 -105 c0
-9 -9 -15 -21 -15 -18 0 -19 2 -9 15 7 8 16 15 21 15 5 0 9 -7 9 -15z m43 -12
c-7 -2 -19 -2 -25 0 -7 3 -2 5 12 5 14 0 19 -2 13 -5z m-127 -89 c4 -14 4 -45
0 -70 -3 -26 -2 -44 4 -44 6 0 10 -12 10 -26 0 -17 -4 -23 -12 -18 -9 5 -8 2
1 -10 11 -13 11 -20 3 -28 -7 -7 -12 -8 -12 -3 0 4 -9 0 -20 -10 -16 -15 -23
-16 -33 -6 -9 10 -9 15 3 24 20 15 20 65 0 77 -12 7 -12 12 -2 22 6 6 12 36
12 65 0 46 3 53 20 53 13 0 22 -9 26 -26z m4622 -19 c2 -2 -18 -6 -45 -10 -26
-3 -60 -13 -75 -21 -30 -16 -76 -18 -98 -4 -12 8 -12 10 2 15 9 4 33 5 54 3
27 -2 44 2 57 15 14 14 27 16 60 12 23 -4 44 -8 45 -10z m127 -20 c138 -2 139
-2 130 -280 -6 -180 -5 -218 9 -267 18 -59 68 -138 88 -138 6 0 34 -11 62 -24
125 -60 243 -70 356 -32 138 46 180 59 225 67 28 5 73 15 100 21 72 17 311 13
449 -6 125 -18 199 -45 217 -79 14 -24 6 -77 -16 -110 -35 -53 -65 -59 -354
-64 -252 -5 -269 -6 -318 -28 -38 -17 -53 -29 -53 -44 0 -35 11 -49 58 -80 47
-29 124 -45 327 -67 33 -3 85 -12 116 -20 31 -8 67 -14 80 -14 13 -1 37 -11
52 -24 l29 -23 5 -204 c3 -112 7 -235 10 -273 3 -42 1 -72 -6 -79 -8 -8 -11 7
-11 53 0 49 -5 71 -22 98 l-23 33 -200 -6 c-189 -5 -281 -15 -350 -35 -16 -5
-102 -11 -190 -15 -88 -3 -180 -10 -205 -15 -171 -37 -538 -56 -563 -31 -19
19 -45 12 -67 -19 -12 -16 -29 -30 -39 -30 -9 0 -38 -13 -64 -30 -26 -16 -52
-30 -57 -30 -5 0 0 -21 11 -46 19 -42 19 -47 4 -70 -13 -20 -19 -23 -31 -13
-8 6 -14 19 -14 28 0 14 -2 14 -11 1 -8 -12 -9 -9 -4 10 18 72 18 90 1 90 -14
0 -16 -6 -11 -34 5 -22 3 -36 -6 -41 -9 -6 -10 -1 -5 20 6 25 5 27 -9 15 -9
-7 -14 -19 -11 -26 3 -8 0 -11 -10 -7 -8 3 -14 -1 -14 -10 0 -10 7 -13 20 -10
28 7 25 -9 -7 -43 -15 -16 -24 -21 -20 -12 3 9 2 32 -4 50 -5 19 -5 34 0 36 5
2 4 16 -2 32 -9 23 -18 30 -39 30 -19 0 -28 5 -28 16 0 15 -43 64 -56 64 -9 0
-97 62 -124 87 -29 27 -34 28 -50 8 -9 -11 -34 -15 -101 -15 -79 0 -88 -2 -94
-20 -3 -11 -10 -20 -15 -20 -5 0 -12 9 -15 20 -3 11 -15 20 -25 20 -10 0 -31
7 -46 15 -16 8 -48 15 -71 15 -35 0 -43 -3 -43 -18 0 -15 -6 -18 -32 -14 -18
3 -37 11 -41 18 -11 19 -87 19 -87 0 0 -16 -24 -24 -57 -18 -14 3 -23 12 -23
23 0 17 -9 19 -90 19 -53 0 -90 4 -90 10 0 11 -69 13 -159 4 -55 -6 -61 -9
-61 -30 0 -13 7 -24 17 -26 9 -2 -39 -2 -108 0 -68 2 -138 3 -156 3 -18 -1
-35 3 -38 9 -5 8 -105 6 -175 -3 -8 -1 -71 3 -140 8 -69 5 -144 8 -167 6 -26
-2 -51 4 -67 14 -14 10 -33 15 -41 11 -8 -3 -15 -1 -15 4 0 6 -22 10 -50 10
-42 0 -50 -3 -50 -19 0 -20 25 -31 71 -31 40 0 90 -20 82 -33 -3 -7 -3 -9 1
-6 4 4 30 -1 57 -11 27 -10 79 -22 116 -26 l66 -7 -39 -18 c-22 -10 -43 -18
-47 -19 -5 0 -15 -7 -23 -15 -9 -8 -25 -15 -37 -15 -33 0 -98 -25 -108 -41 -7
-11 -9 -10 -9 4 0 9 -4 17 -10 17 -5 0 -10 -5 -10 -11 0 -7 -17 -10 -44 -7
-43 3 -45 2 -56 -33 -13 -37 -6 -84 11 -74 5 4 9 -4 9 -17 -1 -20 -2 -21 -11
-5 -17 29 -29 19 -25 -23 2 -23 1 -38 -2 -35 -3 2 -11 0 -17 -5 -9 -7 -19 -1
-35 20 -13 17 -29 30 -35 30 -18 0 -25 24 -25 83 0 63 -16 53 -36 -24 -10 -38
-11 -55 -3 -60 6 -3 9 -15 7 -25 -5 -20 -4 -21 -44 73 -29 65 -11 193 27 193
24 0 25 17 0 25 -13 4 -17 12 -13 30 6 36 22 41 42 15 l17 -23 18 26 c12 19
26 27 46 27 23 0 29 5 29 21 0 11 -5 29 -11 40 -10 20 -11 20 -30 -2 -10 -12
-19 -29 -19 -38 -1 -21 -40 24 -40 46 0 8 -4 12 -9 8 -5 -3 -12 -1 -16 4 -3 6
-23 3 -50 -9 -24 -10 -58 -18 -76 -18 -25 1 -39 -7 -63 -35 -60 -70 -96 -119
-96 -133 0 -8 -9 -31 -20 -51 -11 -21 -20 -43 -20 -49 0 -6 -6 -17 -14 -23 -7
-6 -19 -32 -26 -56 -7 -25 -16 -45 -21 -45 -4 0 -13 -19 -20 -42 -6 -24 -19
-54 -28 -68 -10 -14 -39 -83 -66 -155 l-49 -130 -2 -145 c-1 -149 4 -180 36
-215 27 -29 35 -71 15 -79 -18 -7 -17 -67 2 -101 8 -13 8 -24 0 -36 -26 -41
42 -157 86 -145 11 3 26 -5 40 -20 24 -28 52 -31 66 -7 8 15 14 12 47 -21 43
-43 97 -66 156 -66 44 0 108 -24 108 -40 0 -6 5 -8 10 -5 6 3 10 -1 10 -9 0
-13 12 -16 59 -16 33 0 63 5 66 10 11 18 35 11 35 -10 0 -22 35 -29 42 -8 3 8
12 5 28 -10 13 -12 29 -22 36 -22 6 0 17 -7 24 -15 7 -9 20 -13 27 -10 8 3 26
-4 40 -15 14 -11 36 -20 49 -20 13 0 29 -9 36 -20 7 -11 18 -20 25 -20 7 0 13
-4 13 -8 0 -11 62 -47 80 -47 16 0 17 -7 5 -43 -5 -17 -13 -21 -27 -16 -21 6
-58 -20 -58 -43 0 -7 -7 -13 -15 -13 -8 0 -15 -4 -15 -10 0 -5 5 -10 11 -10
14 0 39 -25 39 -39 0 -6 -4 -11 -10 -11 -5 0 -10 -6 -10 -14 0 -7 -11 -21 -25
-30 -14 -10 -30 -27 -35 -40 -7 -18 -14 -22 -39 -18 -33 5 -114 -12 -176 -36
-38 -15 -39 -16 -15 -23 l25 -7 -27 -1 c-19 -1 -28 5 -30 18 -2 16 -5 17 -15
6 -10 -11 -10 -17 1 -27 11 -12 3 -14 -53 -14 -43 1 -75 -5 -91 -15 -14 -9
-53 -17 -90 -18 -36 -2 -72 -6 -80 -10 -32 -16 -91 -13 -111 5 -19 17 -21 17
-54 -1 -34 -18 -35 -18 -56 1 -11 10 -35 23 -52 29 -21 6 -33 17 -35 32 -3 17
-11 22 -48 25 -53 4 -65 -5 -55 -41 5 -14 6 -32 3 -39 -7 -22 19 -72 38 -72
28 0 43 -25 30 -49 -13 -24 2 -61 25 -61 7 0 15 -6 18 -12 4 -10 7 -10 18 0
19 18 28 15 22 -8 -7 -25 4 -70 17 -70 5 0 12 16 16 35 7 40 14 47 34 35 16
-10 22 -97 8 -122 -5 -11 -5 -18 1 -18 5 0 12 11 15 24 4 15 13 23 23 22 13
-1 19 7 21 27 2 15 7 27 11 27 14 0 51 37 44 44 -10 10 29 35 55 36 12 0 22
-4 22 -10 0 -5 -13 -10 -29 -10 -29 0 -56 -20 -29 -20 8 -1 7 -5 -5 -14 -22
-17 -6 -30 24 -21 13 4 27 1 38 -9 28 -25 161 -13 161 14 0 12 59 30 100 30
29 0 39 5 43 20 3 12 14 20 27 20 20 0 100 22 145 40 16 6 27 1 48 -22 15 -16
25 -33 22 -38 -4 -6 -1 -10 4 -10 6 0 11 5 11 10 0 6 15 10 33 10 23 0 28 3
17 10 -8 5 -11 12 -8 16 11 10 60 -5 53 -16 -4 -6 2 -13 12 -17 10 -4 21 -11
25 -17 5 -7 8 -7 8 2 0 17 28 15 46 -3 9 -8 28 -15 42 -15 36 0 71 -25 66 -47
-5 -22 3 -33 40 -57 20 -13 25 -20 16 -26 -9 -6 -7 -11 8 -19 27 -14 49 -14
59 2 8 11 47 37 58 37 3 0 5 -8 5 -18 0 -22 70 -49 81 -31 5 8 12 8 27 0 11
-6 29 -11 40 -11 21 0 40 -32 23 -38 -14 -5 -14 -32 -1 -32 6 0 10 -10 10 -23
0 -13 13 -32 31 -47 18 -14 39 -34 48 -44 54 -64 61 -66 91 -36 30 30 57 25
75 -14 l16 -34 40 26 c21 14 39 29 39 34 0 4 9 8 19 8 11 0 21 4 23 8 2 4 18
19 37 32 23 16 36 20 39 12 2 -8 39 -12 123 -12 112 0 119 1 119 20 0 17 7 20
50 20 46 0 67 13 38 22 -9 3 -8 9 4 22 15 14 28 16 77 10 53 -6 58 -8 53 -27
-4 -16 -1 -19 14 -15 20 5 21 3 26 -57 2 -21 -1 -30 -12 -30 -8 0 -16 -7 -18
-15 -3 -18 57 -90 76 -90 6 0 12 -4 12 -10 0 -5 -18 -10 -40 -10 -33 0 -40 -3
-40 -20 0 -16 -7 -20 -32 -20 -51 0 -167 -41 -174 -62 -3 -10 -14 -23 -25 -29
-11 -5 -18 -16 -17 -23 4 -15 -55 -89 -161 -203 -11 -13 -27 -20 -35 -17 -15
6 -116 -43 -116 -56 0 -4 -15 -10 -32 -14 -50 -9 -52 -10 -76 -34 -12 -12 -31
-22 -42 -22 -11 0 -27 -11 -35 -24 -9 -13 -34 -31 -56 -40 -21 -9 -39 -20 -39
-25 0 -9 -37 -53 -122 -141 -34 -36 -55 -50 -75 -50 -14 0 -41 -5 -59 -12 -27
-9 -38 -9 -59 2 -20 11 -35 11 -77 2 -85 -18 -139 -21 -167 -10 -14 6 -80 15
-146 19 -66 4 -217 14 -335 24 -227 18 -399 20 -449 5 -16 -4 -47 -6 -68 -3
-28 4 -42 1 -52 -11 -14 -16 -56 -22 -64 -8 -9 16 14 71 32 77 13 4 17 12 14
25 -3 12 0 20 6 20 7 0 19 16 27 36 9 20 24 48 34 63 26 37 33 129 15 181 -8
23 -15 55 -15 70 0 15 -8 38 -18 51 -11 13 -40 67 -65 118 -57 115 -58 139
-16 273 25 79 29 104 21 123 -18 38 -26 163 -13 179 15 18 11 58 -6 63 -6 2
-14 -13 -18 -39 l-7 -42 -19 36 c-10 19 -26 38 -35 42 -15 6 -15 8 0 32 19 28
13 64 -10 64 -8 0 -14 -10 -14 -25 0 -42 -18 -28 -50 40 -17 36 -35 65 -40 65
-6 0 -10 9 -10 20 0 23 18 27 26 5 4 -8 13 -15 20 -15 8 0 20 -12 26 -27 9
-22 12 -24 15 -11 3 10 -3 25 -11 34 -9 8 -16 24 -16 34 0 10 -4 22 -10 25 -6
3 -10 15 -10 26 0 11 -4 18 -9 15 -12 -8 -31 40 -31 79 0 18 7 40 15 49 8 8
15 19 15 25 0 15 -41 25 -50 11 -4 -7 -10 4 -14 27 -21 124 -23 154 -16 192 8
46 -6 71 -39 71 -14 0 -17 6 -13 26 3 15 13 35 22 44 42 42 32 195 -18 306
-39 84 -79 314 -89 511 -5 92 -3 111 20 180 42 128 43 168 6 277 -32 95 -32
95 -20 183 29 196 50 255 206 573 65 132 99 245 111 365 3 39 16 90 28 115 20
42 24 45 56 42 19 -1 36 -4 38 -7 2 -2 7 -46 12 -99 9 -105 13 -116 40 -116
10 0 20 -7 24 -15 3 -8 13 -15 22 -15 23 0 54 -29 54 -50 0 -10 6 -20 13 -23
7 -2 18 -32 26 -66 7 -33 18 -61 23 -61 5 0 7 -4 3 -9 -3 -5 -1 -12 4 -16 6
-3 8 -12 5 -19 -3 -8 3 -34 14 -58 10 -23 22 -51 25 -61 4 -9 15 -20 24 -23
10 -4 28 -18 39 -31 19 -22 24 -23 43 -11 22 13 29 29 35 86 2 18 5 34 7 35 2
1 15 8 29 16 40 23 353 28 483 8 56 -9 185 -19 287 -22 102 -4 188 -9 193 -12
4 -2 90 -6 190 -9 100 -2 259 -6 353 -9 163 -6 294 5 318 26 13 11 -33 31 -58
25 -13 -3 -38 -1 -57 5 -19 6 -149 12 -294 14 -143 2 -309 7 -370 12 -60 5
-123 7 -140 4 -16 -4 -131 -2 -255 3 -124 5 -265 8 -315 6 -228 -9 -362 -3
-368 14 -2 6 -2 25 0 42 5 31 44 64 76 64 24 0 30 18 13 36 -9 8 -16 26 -16
39 0 13 -7 52 -16 87 -18 69 -15 236 5 293 6 17 21 64 34 105 53 164 82 233
108 253 24 17 46 19 245 22 121 2 251 8 289 15 100 16 236 5 300 -26 73 -35
148 -49 255 -49 76 1 101 5 123 20 25 16 33 17 64 6 38 -14 177 -6 168 10 -3
5 4 11 17 14 13 2 52 12 88 21 36 9 95 17 132 18 38 0 68 4 68 9 0 4 5 7 11 7
7 0 17 7 23 15 6 9 23 17 36 18 24 2 70 23 80 37 28 36 93 49 158 31 17 -5 32
-6 32 -1 0 9 59 26 75 21 6 -1 42 -2 80 -2 75 1 134 14 146 32 3 6 37 14 74
16 44 4 69 11 72 20 4 9 11 11 22 6 9 -4 48 -8 86 -8z m-4699 -112 c-10 -10
-19 5 -10 18 6 11 8 11 12 0 2 -7 1 -15 -2 -18z m-109 -200 c-3 -3 -11 -2 -17
2 -8 5 -7 11 2 22 12 15 13 14 16 -1 2 -10 1 -20 -1 -23z m0 -105 c-2 -13 -4
-3 -4 22 0 25 2 35 4 23 2 -13 2 -33 0 -45z m620 -4 c-3 -3 -12 -4 -19 -1 -8
3 -5 6 6 6 11 1 17 -2 13 -5z m4928 -1420 c50 -8 167 -19 260 -24 95 -6 189
-17 214 -25 25 -8 60 -15 78 -15 19 0 50 -7 70 -15 30 -13 43 -13 65 -4 22 9
31 9 43 -1 19 -16 19 -56 1 -63 -8 -3 -16 -21 -18 -39 -2 -27 -9 -35 -34 -43
-30 -10 -34 -14 -34 -37 0 -8 -39 -9 -152 -2 -273 15 -754 -3 -823 -31 -121
-48 -155 -90 -135 -164 9 -34 18 -44 58 -64 51 -26 110 -59 157 -89 17 -10 50
-28 75 -39 25 -11 70 -32 100 -46 94 -43 148 -53 325 -60 163 -5 172 -7 228
-35 69 -36 91 -73 85 -148 -2 -42 -1 -47 9 -34 16 22 20 10 26 -83 4 -63 2
-73 -12 -73 -13 0 -20 16 -28 68 -10 53 -18 72 -39 88 -25 20 -25 23 -10 46
15 23 14 24 -7 27 -66 10 -395 3 -402 -9 -3 -4 42 -11 100 -15 111 -7 137 -20
58 -27 -59 -6 -469 -2 -538 5 -113 11 -182 24 -212 40 -18 9 -48 17 -68 17
-22 0 -43 8 -56 21 -11 11 -27 18 -34 15 -17 -6 -85 12 -85 23 0 20 -31 18
-73 -5 -26 -13 -48 -24 -50 -24 -3 0 -7 16 -9 36 -3 28 0 38 11 41 12 3 16 17
16 56 -1 65 3 77 24 77 26 -1 65 -36 58 -53 -8 -22 3 -28 25 -12 11 7 26 11
33 9 19 -8 126 26 131 41 7 18 -73 99 -99 100 -12 1 -48 7 -79 15 -71 16 -79
42 -22 66 20 8 38 24 41 35 4 14 14 19 38 19 60 0 56 68 -4 71 -25 1 -25 2 4
8 25 5 31 11 33 41 2 19 8 41 14 47 6 7 8 13 6 13 -11 0 -87 -41 -93 -50 -3
-5 -11 -10 -16 -10 -6 0 -8 4 -4 9 3 5 2 12 -3 15 -4 2 -7 25 -6 49 2 46 22
71 106 136 40 31 150 81 177 81 15 0 36 6 47 14 37 26 292 32 429 10z m-3350
-84 c3 -5 1 -10 -4 -10 -6 0 -11 5 -11 10 0 6 2 10 4 10 3 0 8 -4 11 -10z
m2316 -23 c-10 -9 -11 -8 -5 6 3 10 9 15 12 12 3 -3 0 -11 -7 -18z m-2241 -3
c0 -2 -9 -4 -21 -4 -11 0 -18 4 -14 10 5 8 35 3 35 -6z m2280 -14 c0 -21 -15
-27 -25 -10 -7 12 2 30 16 30 5 0 9 -9 9 -20z m40 6 c0 -11 -19 -15 -25 -6 -3
5 1 10 9 10 9 0 16 -2 16 -4z m-2520 -76 c0 -11 -2 -20 -4 -20 -2 0 -6 9 -9
20 -3 11 -1 20 4 20 5 0 9 -9 9 -20z m94 -41 c-7 -11 -34 -12 -34 -1 0 14 11
21 26 15 8 -3 11 -9 8 -14z m2526 -19 c0 -13 -7 -20 -20 -20 -19 0 -27 20 -13
33 13 14 33 6 33 -13z m10 -410 c0 -5 -4 -10 -10 -10 -5 0 -10 5 -10 10 0 6 5
10 10 10 6 0 10 -4 10 -10z m-2817 -160 c-7 -28 -13 -25 -13 6 0 14 4 23 9 20
5 -3 7 -15 4 -26z m-63 -160 c0 -5 -5 -10 -11 -10 -5 0 -7 5 -4 10 3 6 8 10
11 10 2 0 4 -4 4 -10z m2806 -210 c8 0 17 -6 19 -12 25 -73 25 -72 43 -55 15
13 22 14 42 4 14 -7 25 -18 25 -25 0 -7 3 -11 6 -9 3 1 12 -3 20 -9 12 -10 53
-21 114 -31 37 -6 209 -22 270 -26 33 -2 74 -10 90 -19 17 -8 44 -23 62 -32
18 -9 50 -18 73 -19 25 -1 40 -6 40 -14 0 -7 6 -13 14 -13 8 0 17 -6 19 -12 4
-10 7 -10 14 -1 13 18 49 5 62 -23 6 -13 16 -24 24 -24 7 0 28 -18 47 -39 18
-22 37 -38 42 -35 4 3 8 0 8 -5 0 -6 20 -11 46 -11 56 0 112 -25 126 -56 13
-29 33 -37 48 -19 9 11 7 16 -10 25 -17 9 -20 17 -15 38 8 32 25 45 42 31 8
-7 9 -18 3 -34 -7 -18 -5 -25 6 -29 37 -14 53 -6 59 28 6 29 12 35 41 41 38 7
39 8 23 36 -8 16 -7 25 7 40 9 10 23 19 31 19 14 0 19 46 5 52 -5 2 -5 14 -1
28 l7 25 1 -27 c1 -21 5 -25 21 -21 11 3 23 17 26 32 9 37 13 41 29 34 23 -8
19 -60 -5 -73 -11 -6 -20 -15 -20 -20 0 -5 -11 -20 -25 -34 -30 -30 -32 -46
-6 -53 27 -7 16 -28 -21 -44 -17 -7 -42 -22 -55 -35 -53 -47 -69 -60 -108 -89
-22 -16 -53 -37 -68 -45 -16 -8 -35 -26 -44 -40 -25 -42 -138 -111 -191 -117
-20 -2 -40 -9 -44 -16 -5 -8 -44 -13 -109 -15 -112 -4 -177 9 -288 59 -74 34
-178 41 -205 14 -8 -8 -26 -15 -40 -15 -14 0 -28 -5 -31 -11 -4 -5 -32 -21
-63 -35 -32 -14 -65 -29 -74 -34 -10 -6 -26 -10 -35 -10 -23 0 -113 -34 -151
-57 -32 -20 -106 -100 -135 -145 -9 -15 -17 -38 -17 -50 0 -13 -7 -32 -15 -42
-19 -25 -19 -108 0 -172 19 -64 84 -153 196 -267 49 -50 89 -98 89 -107 0 -9
6 -22 12 -28 16 -16 16 -134 0 -247 -6 -44 -14 -107 -18 -140 -7 -55 -36 -125
-53 -125 -4 0 -17 -9 -30 -21 -19 -18 -21 -27 -16 -60 7 -38 6 -39 -23 -39
-38 0 -43 -13 -49 -125 -8 -138 -8 -140 18 -174 20 -27 21 -33 9 -41 -21 -13
-33 -8 -48 23 -7 15 -19 27 -26 27 -16 0 -26 21 -26 53 0 16 -3 18 -9 8 -16
-24 -19 3 -17 134 3 159 4 170 13 162 3 -4 17 5 30 20 20 21 23 32 18 60 -3
19 -1 49 6 68 11 29 10 37 -7 62 -10 15 -27 60 -37 98 -10 39 -27 79 -36 90
-24 26 -39 56 -45 88 -2 14 -14 36 -25 49 -12 12 -21 34 -21 49 0 15 -11 59
-25 97 -14 38 -25 85 -25 104 0 18 -9 51 -20 73 -11 22 -20 49 -20 61 0 11 -9
29 -19 38 -16 14 -19 28 -16 65 9 92 17 267 16 323 -1 31 3 59 9 63 6 3 8 11
5 16 -4 5 -4 9 0 9 3 0 10 -10 15 -22 8 -18 9 -12 4 21 -6 40 5 81 37 144 5
10 7 22 4 28 -4 5 4 36 17 70 20 53 27 61 61 71 20 6 37 15 37 20 0 4 6 8 14
8 9 0 18 22 27 65 15 78 25 97 38 75 9 -13 11 -13 15 0 3 8 7 34 9 57 2 23 6
46 10 49 4 4 7 22 7 41 0 18 5 33 12 33 6 0 4 8 -6 19 -24 26 -30 81 -9 81 9
0 24 -10 34 -21 27 -31 53 -9 46 38 -5 30 -4 32 9 18 9 -8 22 -15 30 -15z
m1527 -47 c-5 -37 -4 -43 11 -37 13 5 16 0 16 -25 0 -55 -27 -36 -50 36 -14
46 -10 70 14 70 12 0 14 -9 9 -44z m47 -14 c0 -11 -4 -17 -10 -14 -5 3 -10 13
-10 21 0 8 5 14 10 14 6 0 10 -9 10 -21z m30 -104 c0 -19 -4 -35 -9 -35 -11 0
-24 48 -16 60 13 21 25 8 25 -25z m-20 -69 c0 -24 -12 -46 -21 -40 -15 9 -10
54 6 54 8 0 15 -6 15 -14z m-50 -86 c0 -11 -7 -20 -15 -20 -8 0 -15 9 -15 20
0 11 7 20 15 20 8 0 15 -9 15 -20z m-190 0 c0 -5 -4 -10 -10 -10 -5 0 -10 5
-10 10 0 6 5 10 10 10 6 0 10 -4 10 -10z m-25 -50 c-3 -5 -12 -7 -20 -3 -21 7
-19 13 6 13 11 0 18 -4 14 -10z m-5325 -243 c8 -7 28 -29 43 -49 l28 -38 -29
0 c-23 0 -31 6 -36 23 -3 12 -17 34 -31 49 -14 15 -25 29 -25 32 0 7 34 -4 50
-17z m135 -77 c4 -6 -5 -10 -19 -10 -14 0 -26 5 -26 10 0 6 9 10 19 10 11 0
23 -4 26 -10z m161 -38 c-12 -11 18 -32 45 -32 30 0 41 23 17 33 -33 13 44 5
85 -9 46 -16 87 -53 87 -80 0 -20 -33 -17 -61 5 -18 14 -41 19 -85 19 -33 0
-76 7 -95 15 -20 8 -69 18 -110 22 -63 7 -70 9 -49 18 14 5 40 12 59 16 38 7
115 2 107 -7z m-500 -15 c-3 -19 0 -22 22 -21 14 0 41 -9 59 -22 44 -30 143
-61 218 -69 33 -4 83 -13 110 -20 100 -27 146 -35 191 -35 55 0 108 -26 164
-81 23 -23 64 -53 90 -66 56 -28 136 -117 156 -171 7 -20 13 -68 14 -107 0
-57 -5 -81 -29 -130 -16 -33 -34 -72 -40 -87 -12 -31 -38 -37 -48 -12 -3 8 -1
25 4 37 11 25 -12 74 -39 83 -10 3 -25 15 -35 28 -20 24 -45 42 -143 104 -66
41 -199 91 -312 116 -107 25 -179 46 -217 67 -19 10 -41 19 -47 19 -6 0 -17 7
-24 15 -9 11 -16 12 -25 5 -13 -11 -25 -3 -25 17 0 8 5 11 11 8 6 -4 13 2 16
14 5 21 43 30 43 11 0 -5 9 -10 19 -10 11 0 23 -4 26 -10 8 -13 42 -13 50 1 9
14 -3 59 -16 59 -6 0 -35 11 -65 25 -30 14 -59 25 -64 25 -5 0 -16 16 -24 35
-8 19 -22 35 -31 35 -8 0 -20 11 -25 24 -5 13 -14 27 -19 31 -17 10 -13 65 4
71 8 4 15 12 15 20 0 8 5 14 10 14 6 0 9 -10 6 -23z m764 -107 c9 -16 8 -22
-5 -26 -21 -8 -39 10 -32 30 9 22 24 20 37 -4z m-760 -112 c6 -20 15 -40 20
-43 13 -8 13 -55 0 -55 -5 0 -10 6 -10 13 0 8 -7 27 -15 44 -8 16 -16 42 -17
57 -1 14 -6 26 -10 26 -4 0 -8 8 -8 18 1 15 2 15 16 -3 8 -11 19 -36 24 -57z
m1990 -8 c0 -5 -4 -10 -10 -10 -5 0 -10 5 -10 10 0 6 5 10 10 10 6 0 10 -4 10
-10z m1600 -76 c0 -8 -5 -12 -10 -9 -6 4 -8 11 -5 16 9 14 15 11 15 -7z m-246
-90 c26 -10 18 -24 -14 -24 -30 0 -41 14 -17 23 6 3 13 6 14 6 1 1 8 -2 17 -5z
m14 -66 c20 -20 15 -58 -8 -58 -16 0 -20 7 -20 35 0 37 8 43 28 23z m-108 -88
c0 -5 -18 -10 -40 -10 -22 0 -40 5 -40 10 0 6 18 10 40 10 22 0 40 -4 40 -10z
m348 -292 c-2 -16 -17 -26 -58 -39 -68 -23 -80 -23 -80 -4 0 15 16 20 53 17 9
-1 17 3 17 8 0 6 9 10 20 10 11 0 23 7 26 15 9 23 26 18 22 -7z m412 -593 c0
-14 -4 -25 -10 -25 -5 0 -10 11 -10 25 0 14 5 25 10 25 6 0 10 -11 10 -25z
m-219 -52 c-9 -16 -10 -15 -11 8 0 14 3 29 8 33 12 12 14 -22 3 -41z m469 21
c0 -8 -5 -12 -10 -9 -6 4 -8 11 -5 16 9 14 15 11 15 -7z m-490 -74 c0 -29 -29
-76 -39 -63 -4 4 -6 31 -3 60 4 48 5 51 23 40 11 -7 19 -23 19 -37z m105 -128
c9 -20 23 -50 30 -67 7 -16 19 -48 26 -70 10 -36 27 -74 50 -115 21 -37 50
-86 59 -100 5 -8 19 -37 30 -65 13 -33 31 -56 51 -68 26 -14 29 -20 19 -32 -7
-9 -10 -27 -6 -45 8 -45 -22 -39 -57 10 -16 22 -33 40 -38 40 -5 0 -9 9 -9 20
0 11 -9 25 -20 32 -11 7 -20 22 -20 34 0 12 -11 29 -25 38 -13 9 -31 29 -40
45 -20 39 -94 54 -125 26 -12 -11 -29 -16 -45 -13 -14 3 -25 2 -25 -1 0 -12
-62 -41 -89 -41 -15 0 -36 8 -45 19 -9 10 -34 21 -55 24 -21 2 -48 13 -59 23
-44 40 -50 43 -86 37 -27 -4 -42 -1 -56 12 -16 14 -30 17 -71 12 -71 -9 -111
1 -104 23 8 26 -30 36 -60 16 -13 -9 -40 -16 -59 -16 -19 0 -36 -5 -38 -10 -2
-6 -32 -13 -67 -16 -36 -3 -73 -10 -82 -15 -10 -5 -29 -9 -43 -9 -14 0 -28 -5
-32 -11 -3 -6 -17 -8 -31 -4 -31 7 -63 -2 -63 -20 0 -12 -21 -25 -41 -25 -5 0
-9 9 -9 20 0 15 -7 20 -25 20 -13 0 -28 -6 -32 -14 -5 -7 -35 -16 -72 -20 -36
-3 -68 -11 -72 -18 -4 -6 -15 -8 -24 -4 -14 5 -15 9 -5 21 7 8 19 15 26 15 8
0 14 4 14 8 0 5 12 15 26 22 45 24 169 153 194 203 14 26 30 47 35 47 6 0 18
8 27 19 13 16 37 19 169 26 95 4 178 3 218 -4 70 -11 228 -55 276 -76 17 -7
46 -16 65 -20 19 -4 58 -20 87 -36 61 -33 82 -35 123 -14 17 9 40 13 54 9 18
-4 28 1 45 24 11 17 21 39 21 51 0 23 51 101 62 94 4 -2 15 -21 23 -41z m2809
-42 c5 -7 13 -97 17 -200 4 -130 12 -201 24 -240 26 -83 29 -137 12 -178 -17
-40 -28 -114 -31 -204 -1 -32 -5 -61 -9 -64 -4 -4 -7 -33 -7 -64 0 -39 -5 -62
-15 -70 -18 -15 -16 -22 -22 115 -6 151 -6 146 2 185 16 74 17 166 2 203 -23
53 -31 198 -18 307 7 52 12 140 13 195 1 87 3 96 12 65 6 -19 15 -42 20 -50z
m-3574 -190 c0 -5 -10 -10 -22 -10 -19 0 -20 2 -8 10 19 13 30 13 30 0z m465
-158 c7 -23 7 -24 -12 -5 -11 10 -17 24 -15 31 6 16 17 5 27 -26z m2690 8 c3
-5 2 -10 -4 -10 -5 0 -13 5 -16 10 -3 6 -2 10 4 10 5 0 13 -4 16 -10z m-6040
-90 c3 -5 1 -10 -4 -10 -6 0 -11 5 -11 10 0 6 2 10 4 10 3 0 8 -4 11 -10z
m6122 -12 c-3 -8 -6 -5 -6 6 -1 11 2 17 5 13 3 -3 4 -12 1 -19z m-6431 -33
c-19 -14 -36 -12 -36 6 0 5 12 9 28 9 26 -1 26 -1 8 -15z m6514 -76 c0 -16 -4
-29 -10 -29 -5 0 -10 16 -10 36 0 21 4 33 10 29 6 -3 10 -19 10 -36z m-6560
21 c0 -5 -8 -10 -17 -10 -15 0 -16 2 -3 10 19 12 20 12 20 0z m35 -32 c33 -15
32 -36 -2 -43 -16 -4 -37 -11 -47 -17 -16 -8 -18 -7 -12 9 12 29 12 31 1 32
-5 1 -10 -5 -10 -11 0 -7 -8 -14 -17 -16 -27 -5 -23 31 5 44 30 16 51 16 82 2z
m6542 -60 c-3 -7 -5 -2 -5 12 0 14 2 19 5 13 2 -7 2 -19 0 -25z m-6397 -4 c0
-8 -4 -12 -10 -9 -5 3 -10 10 -10 16 0 5 5 9 10 9 6 0 10 -7 10 -16z m6384
-46 c-13 -81 -17 -86 -26 -38 -6 37 -5 47 9 58 23 17 23 16 17 -20z m-6616
-25 c2 -9 -7 -13 -27 -13 -30 0 -39 9 -24 24 11 10 46 3 51 -11z m400 -1 c2
-7 -7 -12 -23 -12 -24 0 -26 2 -15 15 14 17 31 16 38 -3z m-110 -18 c26 -18
28 -41 6 -65 -12 -13 -15 -28 -10 -54 4 -19 11 -35 16 -35 6 0 10 -7 10 -15 0
-8 -5 -15 -11 -15 -5 0 -16 -15 -24 -34 -10 -24 -27 -40 -55 -52 -29 -13 -40
-24 -40 -40 0 -16 -12 -28 -43 -43 -24 -12 -49 -21 -55 -21 -7 0 -12 -4 -12
-10 0 -5 -6 -10 -14 -10 -8 0 -18 -9 -21 -20 -5 -15 -15 -20 -42 -20 -20 0
-46 -9 -60 -20 -14 -11 -36 -20 -49 -20 -13 0 -24 -4 -24 -10 0 -5 7 -10 15
-10 21 0 19 -6 -15 -38 -16 -16 -30 -35 -30 -43 -1 -19 -48 -52 -66 -45 -8 3
-14 0 -14 -8 0 -8 -16 -26 -35 -40 -19 -15 -38 -38 -41 -51 -3 -14 -13 -25
-23 -25 -24 0 -53 -37 -71 -92 -9 -25 -30 -57 -46 -71 l-29 -25 3 39 c4 34 1
39 -16 39 -12 0 -23 -9 -27 -21 -4 -11 -17 -25 -30 -31 -30 -13 -75 -3 -75 18
0 14 -2 14 -16 0 -8 -9 -20 -16 -25 -16 -5 0 -9 -7 -9 -15 0 -21 -43 -46 -76
-43 l-30 2 16 33 c8 18 23 32 32 33 18 0 33 33 23 50 -4 6 -15 8 -26 5 -14 -5
-20 0 -25 20 -3 14 -19 34 -35 46 -16 11 -29 26 -29 32 0 7 -12 18 -27 24 -31
14 -65 34 -73 45 -3 3 -18 10 -33 13 -36 9 -35 25 3 25 17 0 30 -4 30 -10 0
-11 33 -14 43 -4 3 4 -1 13 -9 21 -8 8 -12 18 -9 23 3 4 -2 11 -10 14 -9 3
-19 15 -23 27 -6 15 -19 23 -40 25 -39 5 -104 35 -109 51 -5 14 54 -5 75 -25
18 -16 31 -7 25 18 -4 16 -14 20 -43 20 -30 0 -40 5 -45 20 -9 29 -51 26 -71
-6 -11 -17 -20 -22 -27 -15 -7 7 -6 15 3 26 16 20 5 32 -14 16 -16 -14 -36 -7
-36 12 0 14 74 77 89 77 6 0 11 -4 11 -10 0 -5 -7 -10 -16 -10 -9 0 -14 -7
-12 -17 5 -25 43 -19 80 12 16 14 39 25 50 25 25 0 19 9 -8 14 -50 10 -74 19
-74 27 0 14 18 19 85 23 33 2 79 9 103 15 24 6 64 13 90 16 26 2 77 9 113 14
36 5 77 7 91 4 14 -3 36 1 48 7 21 11 27 8 62 -31 34 -38 41 -42 58 -31 16 10
21 9 29 -7 11 -19 48 -34 55 -23 2 4 1 34 -3 67 -5 45 -3 67 9 87 8 16 19 28
23 28 4 0 21 10 37 22 24 17 32 19 44 8 9 -7 24 -9 33 -5 17 6 17 7 -1 21 -23
16 -30 44 -11 44 7 0 18 6 24 14 13 16 73 19 109 5 13 -5 46 -12 74 -15 45 -6
50 -4 45 10 -9 22 -1 24 128 34 61 5 115 10 120 11 6 0 21 -6 33 -15z m3829
-29 c3 -9 3 -19 -1 -22 -8 -9 -37 18 -30 28 8 14 24 11 31 -6z m-2831 -44 c-6
-41 10 -106 36 -140 10 -13 18 -31 18 -40 0 -9 14 -36 30 -60 17 -24 30 -48
30 -54 0 -10 68 -86 140 -155 49 -48 99 -82 172 -119 26 -13 50 -28 53 -33 3
-6 19 -10 35 -10 20 0 28 -4 24 -13 -4 -10 13 -12 78 -10 74 3 133 5 171 4 6
0 66 3 132 5 100 5 123 9 141 25 13 12 35 19 59 19 36 0 38 -1 19 -15 -18 -13
-16 -14 21 -15 24 0 58 -10 84 -25 23 -14 50 -25 58 -25 9 0 26 -11 39 -25 24
-26 79 -35 86 -13 3 7 12 9 22 5 9 -4 15 -11 11 -16 -3 -6 -12 -8 -20 -4 -10
3 -15 -2 -15 -16 0 -15 6 -21 23 -21 16 0 28 -9 35 -25 6 -14 18 -25 26 -25 7
0 19 -7 26 -15 18 -22 97 -55 131 -55 16 0 29 -6 30 -12 3 -42 8 -58 27 -85
12 -17 19 -33 15 -37 -10 -10 38 -46 62 -46 18 0 20 5 17 35 -2 19 -1 47 2 61
6 22 11 25 33 19 17 -4 31 0 45 12 21 19 106 21 152 3 14 -5 48 -6 76 -3 40 5
50 3 50 -9 0 -12 -10 -14 -46 -12 -25 3 -53 0 -62 -6 -12 -7 8 -9 70 -10 48 0
90 5 93 10 3 6 32 10 63 10 31 0 79 7 106 15 63 19 150 18 201 -1 22 -9 67
-20 100 -24 33 -4 80 -12 105 -18 63 -14 559 -10 585 5 17 10 15 12 -20 18
-74 12 -86 16 -80 25 3 6 24 13 45 16 22 4 37 11 34 16 -3 5 6 6 20 3 14 -3
38 -8 54 -11 l27 -6 -30 -16 c-29 -16 -29 -17 -7 -20 16 -2 34 8 61 37 22 23
47 41 55 41 24 0 57 -21 92 -57 18 -18 39 -33 48 -33 9 0 43 -20 76 -44 33
-25 71 -48 83 -52 12 -4 36 -17 52 -29 17 -12 46 -28 66 -34 55 -18 110 -80
120 -138 10 -51 -7 -157 -23 -147 -4 3 -8 0 -8 -5 0 -6 3 -11 8 -11 4 0 13 -9
20 -20 12 -20 7 -43 -27 -109 -3 -7 -26 -21 -50 -30 -45 -16 -66 -41 -37 -41
9 0 33 7 53 15 19 8 44 15 55 15 10 0 22 10 27 22 12 33 22 5 15 -42 -5 -31
-13 -44 -35 -56 -16 -8 -29 -21 -29 -29 0 -23 -47 -52 -103 -65 -28 -6 -66
-18 -84 -26 -17 -8 -37 -14 -45 -14 -7 0 -22 -7 -32 -15 -11 -8 -31 -15 -44
-15 -14 0 -49 -12 -78 -26 -72 -35 -110 -94 -119 -187 -10 -90 -36 -131 -89
-135 -21 -2 -53 4 -71 12 -27 13 -74 16 -253 16 -122 0 -223 -4 -226 -9 -3 -4
-19 -11 -35 -14 -16 -4 -46 -20 -65 -38 -29 -25 -42 -30 -66 -25 -23 4 -45 -3
-93 -29 -35 -19 -69 -35 -76 -35 -7 0 -27 -11 -45 -25 -18 -14 -43 -25 -55
-25 -34 0 -91 -27 -91 -43 0 -8 -6 -17 -13 -20 -8 -3 -22 -21 -31 -41 -9 -20
-22 -37 -29 -37 -7 -1 -19 -2 -27 -3 -8 0 -15 -10 -15 -21 0 -57 -35 -72 -166
-74 -114 -2 -173 12 -289 67 -55 27 -56 27 -325 28 -252 2 -278 1 -394 -23
-103 -20 -136 -23 -195 -16 -39 4 -84 7 -99 5 -16 -1 -38 5 -50 13 -12 8 -29
15 -39 15 -24 0 -143 37 -196 61 -23 10 -48 19 -54 19 -6 0 -44 20 -86 45 -41
25 -85 45 -97 45 -16 0 -30 12 -45 37 -20 35 -21 41 -9 95 9 41 20 63 36 73
13 9 34 37 47 63 13 26 34 56 46 67 43 39 59 88 66 202 6 103 5 112 -25 203
-18 52 -41 107 -51 122 -11 15 -20 36 -20 46 0 10 -10 28 -22 39 -13 12 -41
40 -63 63 -49 52 -90 70 -155 70 -28 0 -61 5 -72 11 -21 11 -21 12 -3 25 17
13 15 14 -24 14 -35 0 -48 6 -78 35 -20 19 -42 35 -50 35 -7 0 -13 11 -13 25
0 14 -4 25 -10 25 -5 0 -17 14 -26 32 -15 29 -22 74 -26 167 -1 39 -32 72 -83
91 -55 21 -60 26 -57 56 3 28 0 30 -60 48 -35 11 -79 27 -99 37 -24 12 -48 16
-77 12 -34 -5 -42 -3 -42 10 0 10 -11 19 -27 23 -53 11 -57 14 -45 26 14 14
16 57 3 76 -4 7 -17 15 -27 16 -13 2 -18 10 -16 27 1 13 2 44 2 69 0 36 3 41
11 27 8 -14 14 -15 32 -6 l21 12 -22 8 c-25 10 -30 44 -6 53 24 9 54 7 54 -4
0 -5 7 -10 17 -10 15 0 15 2 -1 19 -14 15 -15 24 -6 40 14 27 24 26 44 -1 l15
-23 21 24 c15 17 17 26 9 31 -7 5 4 13 27 20 22 7 50 23 64 35 29 26 83 38
157 36 34 -1 61 4 77 14 51 34 144 -16 133 -72 -2 -12 0 -28 4 -35 6 -9 9 -7
9 8 0 12 7 24 15 28 9 3 15 19 15 41 0 32 -2 35 -30 35 -41 0 -38 22 8 54 22
15 43 40 51 61 16 45 35 35 27 -14z m5793 -29 c3 -6 69 -13 146 -17 133 -7
141 -9 172 -35 17 -15 36 -29 43 -32 6 -2 8 -11 5 -20 -9 -24 -185 -37 -229
-16 -19 9 -41 12 -56 7 -49 -14 -70 -10 -79 15 -8 20 -31 38 -53 40 -11 1 -10
21 1 21 24 0 19 14 -8 23 -47 16 -40 36 10 29 23 -3 45 -10 48 -15z m-491 -54
c-7 -19 -38 -22 -38 -4 0 10 9 16 21 16 12 0 19 -5 17 -12z m342 -24 c0 -14
-4 -23 -10 -19 -5 3 -10 15 -10 26 0 10 5 19 10 19 6 0 10 -12 10 -26z m-290
-4 c0 -5 -4 -10 -10 -10 -5 0 -10 5 -10 10 0 6 5 10 10 10 6 0 10 -4 10 -10z
m-80 -53 c0 -23 -7 -51 -15 -61 -11 -14 -15 -46 -15 -113 0 -69 -5 -105 -20
-143 -11 -28 -20 -73 -20 -100 0 -54 -1 -55 -31 -40 -21 12 -26 68 -9 100 11
20 21 65 45 199 8 41 19 79 24 84 6 6 11 30 11 53 0 23 3 49 6 58 11 28 24 6
24 -37z m947 11 c-3 -7 -5 -2 -5 12 0 14 2 19 5 13 2 -7 2 -19 0 -25z m103
-48 c0 -5 -4 -10 -10 -10 -5 0 -10 5 -10 10 0 6 5 10 10 10 6 0 10 -4 10 -10z
m-8750 -10 c0 -5 -4 -10 -10 -10 -5 0 -10 5 -10 10 0 6 5 10 10 10 6 0 10 -4
10 -10z m-92 -93 c2 -12 -3 -17 -17 -17 -12 0 -21 6 -21 13 0 31 32 34 38 4z
m7992 -96 c6 -40 13 -77 15 -81 3 -5 2 -11 -3 -14 -5 -3 -17 23 -27 57 -10 34
-23 70 -29 79 -7 12 -6 21 4 33 20 24 28 8 40 -74z m200 -168 c0 -19 -3 -24
-10 -17 -6 6 -8 18 -4 27 9 24 14 21 14 -10z m-563 -50 c-3 -10 -5 -4 -5 12 0
17 2 24 5 18 2 -7 2 -21 0 -30z m470 -5 c-3 -7 -5 -2 -5 12 0 14 2 19 5 13 2
-7 2 -19 0 -25z m-447 -86 c0 -19 4 -21 25 -16 35 9 44 -19 17 -56 -12 -15
-24 -41 -27 -56 -4 -16 -11 -38 -15 -49 -5 -11 -11 -33 -12 -50 -5 -54 -23
-32 -26 32 l-3 63 -32 -3 c-28 -2 -32 1 -30 21 2 14 -3 22 -12 22 -20 0 -34
31 -25 55 12 31 57 68 75 61 10 -4 19 3 27 20 l12 25 13 -23 c7 -13 12 -33 13
-46z m-5680 38 c0 -5 -7 -10 -16 -10 -8 0 -12 5 -9 10 3 6 10 10 16 10 5 0 9
-4 9 -10z m155 -50 c-3 -5 -24 -10 -46 -10 -21 0 -39 5 -39 10 0 6 21 10 46
10 27 0 43 -4 39 -10z m3070 -40 c4 -6 -17 -10 -54 -10 -34 0 -61 4 -61 10 0
6 24 10 54 10 30 0 58 -4 61 -10z m-207 -28 c2 -8 -8 -12 -27 -12 -33 0 -42
16 -13 23 23 6 35 3 40 -11z m-438 -2 c0 -5 -7 -10 -16 -10 -8 0 -12 5 -9 10
3 6 10 10 16 10 5 0 9 -4 9 -10z m690 6 c0 -3 -4 -8 -10 -11 -5 -3 -10 -1 -10
4 0 6 5 11 10 11 6 0 10 -2 10 -4z m2705 -56 c-3 -5 -12 -10 -19 -10 -7 0 -23
-11 -36 -25 -13 -14 -29 -25 -35 -25 -6 0 -28 -9 -50 -20 -22 -11 -50 -20 -64
-20 l-24 0 22 24 c12 13 41 31 64 41 23 9 56 23 72 30 36 16 79 19 70 5z
m-2271 -45 c-7 -17 -44 -21 -44 -4 0 5 -5 7 -12 3 -7 -4 -8 -3 -4 4 4 7 20 12
36 12 22 0 28 -4 24 -15z m134 8 c-15 -2 -42 -2 -60 0 -18 2 -6 4 27 4 33 0
48 -2 33 -4z m-5388 -23 c0 -5 -2 -10 -4 -10 -3 0 -8 5 -11 10 -3 6 -1 10 4
10 6 0 11 -4 11 -10z m-50 -29 c0 -5 -7 -16 -15 -25 -20 -20 -19 -26 5 -26 23
0 26 -10 8 -28 -18 -18 -25 -15 -31 18 -5 21 -12 30 -27 30 -25 0 -26 15 -2
29 22 13 62 14 62 2z m5405 4 c-23 -8 -83 -10 -79 -3 3 4 24 8 47 7 23 0 38
-2 32 -4z m1916 -68 c-8 -8 -11 -5 -11 9 0 27 14 41 18 19 2 -9 -1 -22 -7 -28z
m-7468 9 c8 -8 26 -16 41 -18 44 -5 35 -23 -14 -26 -36 -3 -50 -10 -78 -40
-68 -74 -97 -102 -109 -102 -17 0 -63 -63 -63 -87 0 -22 -52 -76 -76 -79 -9
-2 -28 -14 -43 -27 -52 -48 -66 -51 -122 -21 -45 25 -55 27 -89 17 -22 -5 -43
-6 -47 -2 -4 4 -26 -1 -47 -12 -49 -23 -56 -24 -56 -1 0 19 56 54 94 58 13 1
38 10 56 19 22 12 43 14 71 10 31 -5 40 -3 45 9 3 9 16 16 28 16 12 0 27 5 34
12 9 9 12 8 12 -5 0 -20 4 -21 46 -5 18 6 35 19 38 27 3 9 9 22 12 29 8 17
-40 15 -94 -3 -31 -11 -48 -12 -62 -5 -26 14 -40 12 -40 -5 0 -23 -30 -18 -72
12 -41 28 -45 49 -13 67 11 6 26 19 33 29 7 9 17 17 23 17 17 0 9 -29 -11 -40
-11 -6 -20 -19 -20 -29 0 -14 6 -17 25 -13 14 2 25 11 25 18 0 8 12 19 26 24
29 12 28 30 -4 45 -30 13 -28 22 11 38 35 16 194 40 207 32 5 -3 10 5 12 17 3
21 10 24 73 29 122 10 133 9 148 -5z m7391 -62 c3 -9 4 -20 1 -25 -4 -5 -10
-28 -14 -51 -8 -41 -9 -40 -10 25 -1 63 9 86 23 51z m1076 -42 c0 -13 -12 -22
-22 -16 -10 6 -1 24 13 24 5 0 9 -4 9 -8z m40 -152 c0 -39 -1 -40 -35 -40 -34
0 -35 1 -35 40 0 39 1 40 35 40 34 0 35 -1 35 -40z m-9135 -10 c-3 -5 -13 -10
-21 -10 -8 0 -12 5 -9 10 3 6 13 10 21 10 8 0 12 -4 9 -10z m9180 -20 c3 -5
-3 -10 -14 -10 -12 0 -21 5 -21 10 0 6 6 10 14 10 8 0 18 -4 21 -10z m-9215
-10 c0 -12 -28 -25 -36 -17 -9 9 6 27 22 27 8 0 14 -5 14 -10z m-106 -94 c-21
-15 -30 -14 -19 3 3 6 14 11 23 11 13 0 13 -2 -4 -14z m8096 -461 c0 -31 -14
-54 -27 -42 -9 9 8 87 18 81 5 -3 9 -20 9 -39z m-10 -106 c0 -31 -1 -32 -24
-23 -15 6 -22 44 -10 57 14 13 34 -7 34 -34z m-8590 -280 c0 -42 -14 -49 -34
-17 -7 12 -6 25 2 43 16 35 32 23 32 -26z m9710 -18 c0 -22 -26 -35 -33 -17
-6 14 10 36 25 36 4 0 8 -9 8 -19z m-9800 -48 c-1 -21 -13 -52 -20 -48 -10 6
0 55 11 55 5 0 9 -3 9 -7z m-44 -133 c-9 -34 -16 -70 -16 -81 0 -21 -8 -23
-30 -9 -12 8 -13 13 -2 30 6 11 12 30 12 44 0 13 7 29 15 36 8 7 15 20 15 30
0 9 3 20 7 24 15 14 14 -14 -1 -74z m9801 48 c-3 -7 -5 -2 -5 12 0 14 2 19 5
13 2 -7 2 -19 0 -25z m-9863 -164 c9 -23 7 -47 -4 -64 -9 -13 -11 -13 -20 0
-11 17 -13 63 -3 73 11 11 20 8 27 -9z"/>
<path d="M6920 8820 c0 -5 9 -10 20 -10 11 0 20 5 20 10 0 6 -9 10 -20 10 -11
0 -20 -4 -20 -10z"/>
<path d="M5152 7912 c-8 -5 -12 -13 -10 -18 1 -5 -71 -12 -162 -16 -138 -6
-174 -5 -218 9 -42 13 -60 14 -90 5 -35 -11 -162 -27 -189 -25 -7 0 -24 4 -38
7 -18 5 -25 2 -25 -8 0 -20 34 -22 165 -14 63 5 129 4 155 -2 58 -12 273 -11
373 2 58 7 95 7 140 -2 34 -6 111 -14 172 -16 60 -2 196 -9 300 -15 105 -5
215 -11 245 -11 65 -2 194 22 183 33 -4 4 -55 10 -113 14 -58 4 -125 14 -150
22 -36 12 -79 14 -227 9 -123 -3 -184 -2 -189 5 -3 6 -30 9 -63 8 -31 -2 -60
-1 -66 3 -18 10 -179 19 -193 10z"/>
<path d="M4311 7214 c0 -11 3 -14 6 -6 3 7 2 16 -1 19 -3 4 -6 -2 -5 -13z"/>
<path d="M4415 7210 c-4 -6 -11 -8 -16 -5 -5 3 -6 -1 -2 -10 3 -9 9 -12 12 -7
3 5 13 11 21 14 10 3 11 6 3 11 -7 4 -14 3 -18 -3z"/>
<path d="M6740 7212 c0 -5 7 -9 15 -9 8 0 15 4 15 9 0 4 -7 8 -15 8 -8 0 -15
-4 -15 -8z"/>
<path d="M6800 7170 c0 -5 12 -10 26 -10 14 0 23 4 19 10 -3 6 -15 10 -26 10
-10 0 -19 -4 -19 -10z"/>
<path d="M4400 7031 c0 -18 -5 -41 -10 -52 -12 -22 2 -26 19 -5 7 8 10 29 7
46 -6 44 -16 50 -16 11z"/>
<path d="M4480 4870 c0 -5 7 -7 15 -4 8 4 15 8 15 10 0 2 -7 4 -15 4 -8 0 -15
-4 -15 -10z"/>
<path d="M6200 4550 c0 -5 6 -10 14 -10 8 0 18 5 21 10 3 6 -3 10 -14 10 -12
0 -21 -4 -21 -10z"/>
<path d="M5618 4393 c12 -2 32 -2 45 0 12 2 2 4 -23 4 -25 0 -35 -2 -22 -4z"/>
<path d="M5890 4074 c0 -8 5 -12 10 -9 6 3 10 10 10 16 0 5 -4 9 -10 9 -5 0
-10 -7 -10 -16z"/>
<path d="M4673 3704 c7 -7 107 -7 115 0 3 3 -23 6 -58 6 -35 0 -61 -3 -57 -6z"/>
<path d="M4960 3693 c0 -5 9 -14 20 -20 22 -15 83 -6 77 11 -4 13 -97 21 -97
9z"/>
<path d="M7193 6573 c-7 -3 -13 -16 -13 -30 0 -18 5 -24 17 -21 19 4 30 35 16
48 -4 4 -14 5 -20 3z"/>
<path d="M7200 6284 c0 -8 5 -12 10 -9 6 4 8 11 5 16 -9 14 -15 11 -15 -7z"/>
<path d="M7266 6251 c-6 -9 35 -24 43 -15 6 5 -18 24 -31 24 -4 0 -9 -4 -12
-9z"/>
<path d="M7434 6215 c-18 -13 -17 -14 19 -15 38 0 50 13 21 24 -20 8 -17 8
-40 -9z"/>
<path d="M8008 5313 c6 -2 18 -2 25 0 6 3 1 5 -13 5 -14 0 -19 -2 -12 -5z"/>
<path d="M8060 5280 c0 -5 6 -10 14 -10 8 0 18 5 21 10 3 6 -3 10 -14 10 -12
0 -21 -4 -21 -10z"/>
<path d="M7981 5240 c-15 -13 -18 -20 -9 -20 16 0 78 29 78 36 0 12 -48 1 -69
-16z"/>
<path d="M2997 4854 c-13 -13 5 -24 36 -24 30 1 31 1 13 15 -21 16 -39 19 -49
9z"/>
<path d="M3010 4790 c-19 -4 -30 -8 -25 -9 6 -1 20 -4 31 -7 14 -4 23 0 27 10
4 9 5 15 4 15 -1 -1 -18 -5 -37 -9z"/>
<path d="M5452 3235 c-10 -21 -15 -24 -31 -15 -26 14 -28 13 -34 -11 -5 -20
-3 -21 46 -15 52 7 69 19 64 46 -4 25 -33 22 -45 -5z"/>
<path d="M5552 3248 c-8 -8 -9 -15 -1 -25 16 -19 43 -17 35 3 -3 9 -6 20 -6
25 0 13 -14 11 -28 -3z"/>
<path d="M2715 2580 c-11 -5 -33 -9 -50 -10 l-30 -2 30 -9 c41 -13 96 -19 118
-13 19 6 24 34 5 34 -7 0 -22 2 -33 5 -11 2 -29 0 -40 -5z"/>
<path d="M2225 2530 c3 -5 8 -10 11 -10 2 0 4 5 4 10 0 6 -5 10 -11 10 -5 0
-7 -4 -4 -10z"/>
<path d="M2740 2500 c0 -5 9 -10 20 -10 11 0 20 5 20 10 0 6 -9 10 -20 10 -11
0 -20 -4 -20 -10z"/>
<path d="M1780 2300 c-12 -8 -10 -10 8 -10 13 0 20 4 17 10 -7 12 -6 12 -25 0z"/>
<path d="M2480 2296 c0 -9 7 -16 16 -16 9 0 14 5 12 12 -6 18 -28 21 -28 4z"/>
<path d="M2431 2286 c-7 -8 -8 -16 -4 -18 13 -7 33 -4 33 5 0 4 0 12 0 17 0
14 -16 12 -29 -4z"/>
<path d="M1765 2070 c3 -5 10 -10 16 -10 5 0 9 5 9 10 0 6 -7 10 -16 10 -8 0
-12 -4 -9 -10z"/>
<path d="M1690 2045 c0 -16 6 -25 16 -25 8 0 22 -7 30 -15 22 -21 44 -19 44 6
0 16 -4 19 -20 14 -11 -3 -20 -2 -20 4 0 12 -28 41 -41 41 -5 0 -9 -11 -9 -25z"/>
<path d="M3821 2451 c-20 -16 -23 -24 -17 -55 7 -34 26 -42 26 -10 0 8 7 14
15 14 16 0 20 36 7 57 -5 8 -14 7 -31 -6z"/>
<path d="M3881 2361 c-7 -5 -11 -21 -9 -36 2 -23 8 -29 29 -29 24 -1 25 0 14
31 -14 41 -17 44 -34 34z"/>
<path d="M3960 2235 c-15 -18 -5 -35 21 -35 12 0 29 -10 38 -22 10 -12 23 -18
29 -14 19 11 14 23 -11 30 -13 3 -29 17 -35 31 -13 29 -24 31 -42 10z"/>
<path d="M4256 1934 c-15 -40 -5 -71 42 -122 40 -44 52 -52 83 -52 19 0 39 -4
45 -10 14 -14 388 -14 453 0 50 11 55 11 84 -11 l31 -22 14 21 c9 13 25 22 40
22 29 0 92 -44 92 -65 0 -8 20 -26 44 -40 35 -20 54 -25 90 -22 25 3 46 1 46
-4 0 -4 9 -17 21 -27 17 -17 25 -18 50 -9 22 9 34 9 49 -1 11 -6 28 -12 39
-12 10 0 30 -9 45 -21 31 -25 52 -20 58 13 4 24 -11 48 -32 48 -5 0 -27 16
-49 35 -21 19 -44 35 -50 35 -6 0 -11 3 -11 8 0 14 -125 89 -170 102 -61 16
-75 25 -74 43 2 18 -23 31 -31 17 -10 -16 -36 -11 -53 10 -22 27 -140 49 -174
33 -51 -25 -251 -45 -374 -39 -65 3 -140 6 -165 6 -41 -1 -50 3 -82 40 -40 44
-52 48 -61 24z"/>
<path d="M5120 1930 c0 -11 7 -20 15 -20 13 0 14 4 5 20 -6 11 -13 20 -15 20
-3 0 -5 -9 -5 -20z"/>
<path d="M5290 1830 c-8 -5 -11 -12 -8 -16 10 -9 38 3 38 16 0 12 -10 13 -30
0z"/>
<path d="M7005 1630 c11 -5 61 -8 110 -8 60 0 82 3 65 8 -35 11 -201 11 -175
0z"/>
<path d="M5425 1580 c-4 -6 -2 -17 4 -23 15 -15 25 -2 13 19 -7 12 -11 13 -17
4z"/>
<path d="M5210 1571 c0 -12 29 -23 41 -15 5 3 7 10 4 15 -8 12 -45 12 -45 0z"/>
<path d="M5200 1450 c0 -5 12 -10 26 -10 14 0 23 4 19 10 -3 6 -15 10 -26 10
-10 0 -19 -4 -19 -10z"/>
<path d="M5368 1323 c12 -8 22 -22 22 -29 0 -8 4 -14 10 -14 5 0 19 -18 30
-39 10 -22 25 -41 32 -43 6 -2 17 -20 23 -39 9 -26 18 -35 40 -37 15 -2 42
-17 58 -33 33 -33 70 -36 75 -6 4 22 -30 57 -56 57 -22 0 -42 19 -42 41 0 9
-10 28 -22 42 -13 14 -33 37 -45 51 -12 15 -32 26 -46 26 -13 0 -32 9 -42 20
-10 11 -28 20 -39 19 -21 0 -21 0 2 -16z"/>
<path d="M6030 1321 c-97 -14 -120 -46 -85 -117 14 -27 25 -57 25 -67 0 -17 2
-17 22 -3 30 22 51 20 66 -4 7 -12 16 -18 21 -16 4 3 25 -4 47 -14 40 -21 89
-26 98 -11 7 11 -75 61 -100 61 -13 0 -14 3 -4 15 6 8 9 23 5 35 -5 17 -13 21
-31 17 -13 -2 -32 2 -41 9 -17 11 -15 14 12 24 39 16 113 -2 137 -33 67 -85
128 -120 128 -73 0 20 31 36 70 36 45 0 72 -17 68 -43 -3 -24 18 -33 57 -23
17 4 22 11 18 25 -4 16 2 21 39 28 36 7 43 12 40 30 -2 15 5 23 28 31 17 6 37
18 45 26 9 9 45 17 92 21 43 3 87 7 98 8 11 1 19 7 18 12 -8 29 -265 9 -339
-27 -32 -15 -208 3 -349 37 -81 19 -131 23 -185 16z"/>
<path d="M6960 1264 c0 -21 90 -33 119 -15 21 14 -4 24 -65 26 -37 1 -54 -2
-54 -11z"/>
<path d="M7550 1233 c-38 -3 -60 -10 -73 -24 -11 -11 -16 -23 -12 -27 4 -4 10
-1 12 6 3 9 37 12 123 12 73 0 121 4 125 11 4 6 5 12 4 13 -8 7 -127 12 -179
9z"/>
<path d="M6670 1159 c-53 -7 -80 -26 -80 -56 0 -27 71 -6 128 38 30 23 19 27
-48 18z"/>
<path d="M5745 1058 c-3 -7 1 -31 9 -53 18 -51 49 -56 54 -8 4 45 -50 97 -63
61z"/>
<path d="M6280 1055 c0 -8 6 -15 14 -15 7 0 34 -18 60 -41 l46 -41 0 37 c0 26
-7 42 -22 56 -29 23 -98 26 -98 4z"/>
<path d="M5826 865 c-9 -46 9 -75 30 -48 19 25 17 47 -5 67 -18 16 -19 15 -25
-19z"/>
<path d="M6283 665 c-3 -9 -3 -18 0 -21 9 -9 27 6 27 22 0 19 -19 18 -27 -1z"/>
<path d="M1155 1570 c-3 -5 -3 -10 2 -11 4 0 16 -2 26 -4 21 -4 23 11 1 19
-21 8 -22 8 -29 -4z"/>
<path d="M9600 10226 c0 -7 7 -19 15 -26 8 -7 15 -20 15 -29 0 -9 4 -23 10
-31 8 -12 11 -12 27 2 10 9 29 18 42 20 35 5 37 24 3 31 -18 4 -31 14 -35 26
-4 16 -13 21 -41 21 -24 0 -36 -5 -36 -14z"/>
<path d="M9890 10231 c0 -5 7 -12 16 -15 28 -11 54 -6 54 9 0 10 -11 15 -35
15 -19 0 -35 -4 -35 -9z"/>
<path d="M10210 10225 c7 -8 16 -15 21 -15 5 0 9 7 9 15 0 9 -9 15 -21 15 -18
0 -19 -2 -9 -15z"/>
<path d="M10027 10194 c-9 -10 4 -34 19 -34 8 0 14 9 14 20 0 19 -19 27 -33
14z"/>
<path d="M10125 10130 c-6 -10 91 -110 107 -110 4 0 8 16 8 36 0 21 -4 33 -10
29 -6 -3 -27 7 -47 24 -41 34 -49 36 -58 21z"/>
<path d="M9165 10030 c3 -5 13 -10 21 -10 8 0 12 5 9 10 -3 6 -13 10 -21 10
-8 0 -12 -4 -9 -10z"/>
<path d="M10030 10031 c0 -6 5 -13 10 -16 6 -3 10 1 10 9 0 9 -4 16 -10 16 -5
0 -10 -4 -10 -9z"/>
<path d="M9230 9891 c0 -14 18 -23 31 -15 8 4 7 9 -2 15 -18 11 -29 11 -29 0z"/>
<path d="M9516 1706 c-3 -14 -3 -44 0 -67 l7 -42 14 27 c12 22 12 32 0 67 -14
40 -14 41 -21 15z"/>
<path d="M9517 1403 c8 -52 13 -54 13 -5 0 23 -4 42 -9 42 -6 0 -7 -17 -4 -37z"/>
<path d="M9510 1335 c0 -8 5 -15 10 -15 6 0 10 7 10 15 0 8 -4 15 -10 15 -5 0
-10 -7 -10 -15z"/>
<path d="M10200 1274 c0 -7 27 -34 34 -34 3 0 6 9 6 20 0 13 -7 20 -20 20 -11
0 -20 -3 -20 -6z"/>
<path d="M9547 1213 c-11 -10 -8 -91 3 -98 6 -4 10 15 10 49 0 57 -1 61 -13
49z"/>
<path d="M9785 1130 c-3 -5 3 -10 14 -10 12 0 21 5 21 10 0 6 -6 10 -14 10 -8
0 -18 -4 -21 -10z"/>
<path d="M9570 1086 c0 -9 5 -16 10 -16 6 0 10 4 10 9 0 6 -4 13 -10 16 -5 3
-10 -1 -10 -9z"/>
</g>
</svg>
